{
	"asset":{
		"generator":"Khronos glTF Blender I/O v3.5.30",
		"version":"2.0"
	},
	"scene":0,
	"scenes":[
		{
			"name":"Scene",
			"nodes":[
				2
			]
		}
	],
	"nodes":[
		{
			"name":"Bone"
		},
		{
			"mesh":0,
			"name":"Cube",
			"skin":0
		},
		{
			"children":[
				1,
				0
			],
			"name":"Armature",
			"translation":[
				0,
				-0.44062894582748413,
				0
			]
		}
	],
	"animations":[
		{
			"channels":[
				{
					"sampler":0,
					"target":{
						"node":0,
						"path":"translation"
					}
				},
				{
					"sampler":1,
					"target":{
						"node":0,
						"path":"rotation"
					}
				},
				{
					"sampler":2,
					"target":{
						"node":0,
						"path":"scale"
					}
				}
			],
			"name":"ArmatureAction",
			"samplers":[
				{
					"input":19,
					"interpolation":"LINEAR",
					"output":20
				},
				{
					"input":19,
					"interpolation":"LINEAR",
					"output":21
				},
				{
					"input":19,
					"interpolation":"LINEAR",
					"output":22
				}
			]
		},
		{
			"channels":[
				{
					"sampler":0,
					"target":{
						"node":0,
						"path":"translation"
					}
				},
				{
					"sampler":1,
					"target":{
						"node":0,
						"path":"rotation"
					}
				},
				{
					"sampler":2,
					"target":{
						"node":0,
						"path":"scale"
					}
				}
			],
			"name":"ArmatureAction.001",
			"samplers":[
				{
					"input":23,
					"interpolation":"LINEAR",
					"output":24
				},
				{
					"input":23,
					"interpolation":"LINEAR",
					"output":25
				},
				{
					"input":23,
					"interpolation":"LINEAR",
					"output":26
				}
			]
		},
		{
			"channels":[
				{
					"sampler":0,
					"target":{
						"node":0,
						"path":"translation"
					}
				},
				{
					"sampler":1,
					"target":{
						"node":0,
						"path":"rotation"
					}
				},
				{
					"sampler":2,
					"target":{
						"node":0,
						"path":"scale"
					}
				}
			],
			"name":"attack",
			"samplers":[
				{
					"input":23,
					"interpolation":"LINEAR",
					"output":27
				},
				{
					"input":23,
					"interpolation":"LINEAR",
					"output":28
				},
				{
					"input":23,
					"interpolation":"LINEAR",
					"output":29
				}
			]
		},
		{
			"channels":[
				{
					"sampler":0,
					"target":{
						"node":0,
						"path":"translation"
					}
				},
				{
					"sampler":1,
					"target":{
						"node":0,
						"path":"rotation"
					}
				},
				{
					"sampler":2,
					"target":{
						"node":0,
						"path":"scale"
					}
				}
			],
			"name":"default",
			"samplers":[
				{
					"input":19,
					"interpolation":"LINEAR",
					"output":30
				},
				{
					"input":19,
					"interpolation":"LINEAR",
					"output":31
				},
				{
					"input":19,
					"interpolation":"LINEAR",
					"output":32
				}
			]
		},
		{
			"channels":[
				{
					"sampler":0,
					"target":{
						"node":0,
						"path":"translation"
					}
				},
				{
					"sampler":1,
					"target":{
						"node":0,
						"path":"rotation"
					}
				},
				{
					"sampler":2,
					"target":{
						"node":0,
						"path":"scale"
					}
				}
			],
			"name":"dodge",
			"samplers":[
				{
					"input":23,
					"interpolation":"LINEAR",
					"output":33
				},
				{
					"input":23,
					"interpolation":"LINEAR",
					"output":34
				},
				{
					"input":23,
					"interpolation":"LINEAR",
					"output":35
				}
			]
		}
	],
	"materials":[
		{
			"doubleSided":true,
			"name":"skin",
			"pbrMetallicRoughness":{
				"baseColorFactor":[
					0.8000000715255737,
					0.7335776686668396,
					0.6664173007011414,
					1
				],
				"metallicFactor":0,
				"roughnessFactor":0.5
			}
		},
		{
			"doubleSided":true,
			"name":"eye",
			"pbrMetallicRoughness":{
				"metallicFactor":0,
				"roughnessFactor":0
			}
		},
		{
			"doubleSided":true,
			"name":"Material",
			"pbrMetallicRoughness":{
				"baseColorFactor":[
					0,
					0,
					0,
					1
				],
				"metallicFactor":0,
				"roughnessFactor":0.5
			}
		}
	],
	"meshes":[
		{
			"name":"Cube",
			"primitives":[
				{
					"attributes":{
						"POSITION":0,
						"TEXCOORD_0":1,
						"NORMAL":2,
						"JOINTS_0":3,
						"WEIGHTS_0":4
					},
					"indices":5,
					"material":0
				},
				{
					"attributes":{
						"POSITION":6,
						"TEXCOORD_0":7,
						"NORMAL":8,
						"JOINTS_0":9,
						"WEIGHTS_0":10
					},
					"indices":11,
					"material":1
				},
				{
					"attributes":{
						"POSITION":12,
						"TEXCOORD_0":13,
						"NORMAL":14,
						"JOINTS_0":15,
						"WEIGHTS_0":16
					},
					"indices":17,
					"material":2
				}
			]
		}
	],
	"skins":[
		{
			"inverseBindMatrices":18,
			"joints":[
				0
			],
			"name":"Armature"
		}
	],
	"accessors":[
		{
			"bufferView":0,
			"componentType":5126,
			"count":804,
			"max":[
				1.2371313571929932,
				1.2044497728347778,
				1.2873557806015015
			],
			"min":[
				-1.2290841341018677,
				-1.2310290336608887,
				-1.20909583568573
			],
			"type":"VEC3"
		},
		{
			"bufferView":1,
			"componentType":5126,
			"count":804,
			"type":"VEC2"
		},
		{
			"bufferView":2,
			"componentType":5126,
			"count":804,
			"type":"VEC3"
		},
		{
			"bufferView":3,
			"componentType":5121,
			"count":804,
			"type":"VEC4"
		},
		{
			"bufferView":4,
			"componentType":5126,
			"count":804,
			"type":"VEC4"
		},
		{
			"bufferView":5,
			"componentType":5123,
			"count":4356,
			"type":"SCALAR"
		},
		{
			"bufferView":6,
			"componentType":5126,
			"count":555,
			"max":[
				1.3453179597854614,
				0.706697404384613,
				0.7066969275474548
			],
			"min":[
				-0.047870635986328125,
				-0.706697404384613,
				-0.706697404384613
			],
			"type":"VEC3"
		},
		{
			"bufferView":7,
			"componentType":5126,
			"count":555,
			"type":"VEC2"
		},
		{
			"bufferView":8,
			"componentType":5126,
			"count":555,
			"type":"VEC3"
		},
		{
			"bufferView":9,
			"componentType":5121,
			"count":555,
			"type":"VEC4"
		},
		{
			"bufferView":10,
			"componentType":5126,
			"count":555,
			"type":"VEC4"
		},
		{
			"bufferView":11,
			"componentType":5123,
			"count":2826,
			"type":"SCALAR"
		},
		{
			"bufferView":12,
			"componentType":5126,
			"count":16,
			"max":[
				1.365523338317871,
				0.2972952723503113,
				0.29348090291023254
			],
			"min":[
				1.2749590873718262,
				-0.16128645837306976,
				-0.1671108603477478
			],
			"type":"VEC3"
		},
		{
			"bufferView":13,
			"componentType":5126,
			"count":16,
			"type":"VEC2"
		},
		{
			"bufferView":14,
			"componentType":5126,
			"count":16,
			"type":"VEC3"
		},
		{
			"bufferView":15,
			"componentType":5121,
			"count":16,
			"type":"VEC4"
		},
		{
			"bufferView":16,
			"componentType":5126,
			"count":16,
			"type":"VEC4"
		},
		{
			"bufferView":17,
			"componentType":5123,
			"count":54,
			"type":"SCALAR"
		},
		{
			"bufferView":18,
			"componentType":5126,
			"count":1,
			"type":"MAT4"
		},
		{
			"bufferView":19,
			"componentType":5126,
			"count":1,
			"max":[
				0.041666666666666664
			],
			"min":[
				0.041666666666666664
			],
			"type":"SCALAR"
		},
		{
			"bufferView":20,
			"componentType":5126,
			"count":1,
			"type":"VEC3"
		},
		{
			"bufferView":21,
			"componentType":5126,
			"count":1,
			"type":"VEC4"
		},
		{
			"bufferView":22,
			"componentType":5126,
			"count":1,
			"type":"VEC3"
		},
		{
			"bufferView":23,
			"componentType":5126,
			"count":40,
			"max":[
				1.6666666666666667
			],
			"min":[
				0.041666666666666664
			],
			"type":"SCALAR"
		},
		{
			"bufferView":24,
			"componentType":5126,
			"count":40,
			"type":"VEC3"
		},
		{
			"bufferView":25,
			"componentType":5126,
			"count":40,
			"type":"VEC4"
		},
		{
			"bufferView":26,
			"componentType":5126,
			"count":40,
			"type":"VEC3"
		},
		{
			"bufferView":27,
			"componentType":5126,
			"count":40,
			"type":"VEC3"
		},
		{
			"bufferView":28,
			"componentType":5126,
			"count":40,
			"type":"VEC4"
		},
		{
			"bufferView":29,
			"componentType":5126,
			"count":40,
			"type":"VEC3"
		},
		{
			"bufferView":30,
			"componentType":5126,
			"count":1,
			"type":"VEC3"
		},
		{
			"bufferView":31,
			"componentType":5126,
			"count":1,
			"type":"VEC4"
		},
		{
			"bufferView":32,
			"componentType":5126,
			"count":1,
			"type":"VEC3"
		},
		{
			"bufferView":33,
			"componentType":5126,
			"count":40,
			"type":"VEC3"
		},
		{
			"bufferView":34,
			"componentType":5126,
			"count":40,
			"type":"VEC4"
		},
		{
			"bufferView":35,
			"componentType":5126,
			"count":40,
			"type":"VEC3"
		}
	],
	"bufferViews":[
		{
			"buffer":0,
			"byteLength":9648,
			"byteOffset":0,
			"target":34962
		},
		{
			"buffer":0,
			"byteLength":6432,
			"byteOffset":9648,
			"target":34962
		},
		{
			"buffer":0,
			"byteLength":9648,
			"byteOffset":16080,
			"target":34962
		},
		{
			"buffer":0,
			"byteLength":3216,
			"byteOffset":25728,
			"target":34962
		},
		{
			"buffer":0,
			"byteLength":12864,
			"byteOffset":28944,
			"target":34962
		},
		{
			"buffer":0,
			"byteLength":8712,
			"byteOffset":41808,
			"target":34963
		},
		{
			"buffer":0,
			"byteLength":6660,
			"byteOffset":50520,
			"target":34962
		},
		{
			"buffer":0,
			"byteLength":4440,
			"byteOffset":57180,
			"target":34962
		},
		{
			"buffer":0,
			"byteLength":6660,
			"byteOffset":61620,
			"target":34962
		},
		{
			"buffer":0,
			"byteLength":2220,
			"byteOffset":68280,
			"target":34962
		},
		{
			"buffer":0,
			"byteLength":8880,
			"byteOffset":70500,
			"target":34962
		},
		{
			"buffer":0,
			"byteLength":5652,
			"byteOffset":79380,
			"target":34963
		},
		{
			"buffer":0,
			"byteLength":192,
			"byteOffset":85032,
			"target":34962
		},
		{
			"buffer":0,
			"byteLength":128,
			"byteOffset":85224,
			"target":34962
		},
		{
			"buffer":0,
			"byteLength":192,
			"byteOffset":85352,
			"target":34962
		},
		{
			"buffer":0,
			"byteLength":64,
			"byteOffset":85544,
			"target":34962
		},
		{
			"buffer":0,
			"byteLength":256,
			"byteOffset":85608,
			"target":34962
		},
		{
			"buffer":0,
			"byteLength":108,
			"byteOffset":85864,
			"target":34963
		},
		{
			"buffer":0,
			"byteLength":64,
			"byteOffset":85972
		},
		{
			"buffer":0,
			"byteLength":4,
			"byteOffset":86036
		},
		{
			"buffer":0,
			"byteLength":12,
			"byteOffset":86040
		},
		{
			"buffer":0,
			"byteLength":16,
			"byteOffset":86052
		},
		{
			"buffer":0,
			"byteLength":12,
			"byteOffset":86068
		},
		{
			"buffer":0,
			"byteLength":160,
			"byteOffset":86080
		},
		{
			"buffer":0,
			"byteLength":480,
			"byteOffset":86240
		},
		{
			"buffer":0,
			"byteLength":640,
			"byteOffset":86720
		},
		{
			"buffer":0,
			"byteLength":480,
			"byteOffset":87360
		},
		{
			"buffer":0,
			"byteLength":480,
			"byteOffset":87840
		},
		{
			"buffer":0,
			"byteLength":640,
			"byteOffset":88320
		},
		{
			"buffer":0,
			"byteLength":480,
			"byteOffset":88960
		},
		{
			"buffer":0,
			"byteLength":12,
			"byteOffset":89440
		},
		{
			"buffer":0,
			"byteLength":16,
			"byteOffset":89452
		},
		{
			"buffer":0,
			"byteLength":12,
			"byteOffset":89468
		},
		{
			"buffer":0,
			"byteLength":480,
			"byteOffset":89480
		},
		{
			"buffer":0,
			"byteLength":640,
			"byteOffset":89960
		},
		{
			"buffer":0,
			"byteLength":480,
			"byteOffset":90600
		}
	],
	"buffers":[
		{
			"byteLength":91080,
			"uri":"data:application/octet-stream;base64,"
		}
	]
}
